HIERARCHY
ROOT root
{
	OFFSET 0.000000 0.000000 0.000000
	CHANNELS 6 Xposition Yposition Zposition Zrotation Yrotation Xrotation
	JOINT lhip
	{
		OFFSET 0.058581 -0.082280 -0.017664
		CHANNELS 3 Zrotation Yrotation Xrotation
		JOINT lknee
		{
			OFFSET 0.043451 -0.386469 0.008037
			CHANNELS 3 Zrotation Yrotation Xrotation
			JOINT lankle
			{
				OFFSET -0.014790 -0.426874 -0.037428
				CHANNELS 3 Zrotation Yrotation Xrotation
				JOINT ltoe
				{
					OFFSET 0.041054 -0.060286 0.122042
					CHANNELS 3 Zrotation Yrotation Xrotation
					End Site
					{
						OFFSET 0.000000 0.000000 0.000000
					}
				}
			}
		}
	}
	JOINT rhip
	{
		OFFSET -0.060310 -0.090513 -0.013543
		CHANNELS 3 Zrotation Yrotation Xrotation
		JOINT rknee
		{
			OFFSET -0.043257 -0.383688 -0.004843
			CHANNELS 3 Zrotation Yrotation Xrotation
			JOINT rankle
			{
				OFFSET 0.019056 -0.420046 -0.034562
				CHANNELS 3 Zrotation Yrotation Xrotation
				JOINT rtoe
				{
					OFFSET -0.034840 -0.062106 0.130323
					CHANNELS 3 Zrotation Yrotation Xrotation
					End Site
					{
						OFFSET 0.000000 0.000000 0.000000
					}
				}
			}
		}
	}
	JOINT lowerback
	{
		OFFSET 0.004439 0.124404 -0.038385
		CHANNELS 3 Zrotation Yrotation Xrotation
		JOINT upperback
		{
			OFFSET 0.004488 0.137956 0.026820
			CHANNELS 3 Zrotation Yrotation Xrotation
			JOINT chest
			{
				OFFSET -0.002265 0.056032 0.002855
				CHANNELS 3 Zrotation Yrotation Xrotation
				JOINT lowerneck
				{
					OFFSET -0.013390 0.211636 -0.033468
					CHANNELS 3 Zrotation Yrotation Xrotation
					JOINT upperneck
					{
						OFFSET 0.010113 0.088937 0.050410
						CHANNELS 3 Zrotation Yrotation Xrotation
						End Site
						{
							OFFSET 0.000000 0.000000 0.000000
						}
					}
				}
				JOINT lclavicle
				{
					OFFSET 0.071702 0.114000 -0.018898
					CHANNELS 3 Zrotation Yrotation Xrotation
					JOINT lshoulder
					{
						OFFSET 0.122921 0.045205 -0.019046
						CHANNELS 3 Zrotation Yrotation Xrotation
						JOINT lelbow
						{
							OFFSET 0.255332 -0.015649 -0.022946
							CHANNELS 3 Zrotation Yrotation Xrotation
							JOINT lwrist
							{
								OFFSET 0.265709 0.012698 -0.007375
								CHANNELS 3 Zrotation Yrotation Xrotation
								End Site
								{
									OFFSET 0.000000 0.000000 0.000000
								}
							}
						}
					}
				}
				JOINT rclavicle
				{
					OFFSET -0.082954 0.112472 -0.023707
					CHANNELS 3 Zrotation Yrotation Xrotation
					JOINT rshoulder
					{
						OFFSET -0.113228 0.046853 -0.008472
						CHANNELS 3 Zrotation Yrotation Xrotation
						JOINT relbow
						{
							OFFSET -0.260127 -0.014369 -0.031269
							CHANNELS 3 Zrotation Yrotation Xrotation
							JOINT rwrist
							{
								OFFSET -0.269108 0.006794 -0.006027
								CHANNELS 3 Zrotation Yrotation Xrotation
								End Site
								{
									OFFSET 0.000000 0.000000 0.000000
								}
							}
						}
					}
				}
			}
		}
	}
}
MOTION
Frames: 13
Frame Time: 0.033333
0.015207 0.240010 0.830188 -158.392807 0.613037 101.535959 12.301746 6.759335 -61.221797 -15.268296 13.625633 64.092092 2.457230 4.244153 -25.833528 0.000000 -0.000000 0.000000 -15.577843 -23.145002 -55.166241 1.465051 -21.002356 78.414065 9.861202 6.194630 -16.431672 0.000000 -0.000000 0.000000 -1.409741 3.525999 75.121719 -7.211190 -1.179307 -7.892637 2.805927 2.863130 1.748021 -15.195171 5.119099 -13.486162 2.213625 8.409279 -12.301673 -8.252503 -38.657053 -12.036487 -12.609881 -20.666104 -3.987703 18.932229 -44.833442 -44.697180 13.578699 -11.413246 -54.250979 -4.337366 44.791819 -10.034678 3.402485 35.447701 -22.535961 -19.631826 31.470227 -51.805456 0.142681 11.628250 -29.523002 
0.013854 0.235520 0.851717 -159.606569 1.047343 101.501324 11.979497 6.638631 -58.422340 -14.593765 12.640529 60.639607 2.455312 4.184171 -25.200966 0.000000 -0.000000 0.000000 -14.390997 -21.862120 -52.678053 2.368830 -21.043409 72.894091 9.468652 5.757283 -15.460519 0.000000 -0.000000 0.000000 -1.056557 3.792112 72.361059 -6.917857 -1.147901 -6.842506 2.994574 2.547769 1.473376 -14.679279 5.514108 -12.920512 2.165088 8.557921 -11.188019 -9.133495 -37.214708 -11.186804 -14.944961 -20.427646 -2.656087 19.685264 -46.556533 -43.435129 12.593136 -12.077345 -54.782317 -2.460994 43.442760 -8.498979 7.124737 35.514270 -19.846765 -21.305903 33.520483 -51.609742 -0.377567 11.667131 -31.352633 
0.012235 0.232034 0.872836 -160.846233 1.419163 101.172064 11.872432 6.433132 -55.265194 -14.302690 11.880944 56.930265 2.519717 4.406616 -24.290090 0.000000 -0.000000 0.000000 -13.420482 -20.495847 -49.897136 3.370467 -20.900007 67.285269 9.295269 4.977904 -14.061307 0.000000 -0.000000 0.000000 0.247085 3.768210 69.730309 -6.802655 -2.009890 -5.464898 2.519178 2.079415 1.270678 -14.364769 6.214829 -12.953180 2.109747 8.871126 -9.975922 -9.575273 -35.681564 -10.838708 -17.225394 -19.847900 -1.320059 20.253168 -48.315547 -41.966882 11.796566 -12.241101 -54.921325 -0.676112 42.267596 -7.239723 11.066128 35.697984 -17.041569 -23.308956 35.200950 -51.524718 0.066132 11.838853 -32.282333 
0.010734 0.229118 0.891800 -162.132683 1.701890 100.814216 11.728889 6.495571 -51.998594 -14.076032 11.235993 52.843633 2.610730 4.586269 -23.166694 0.000000 -0.000000 0.000000 -12.518964 -19.171160 -47.286879 4.240941 -20.424460 61.864062 9.308134 4.441197 -12.601694 0.000000 -0.000000 0.000000 0.715630 3.866895 67.161720 -6.530114 -2.213879 -4.631160 2.382871 1.772841 1.130326 -14.269702 6.954634 -13.020304 1.951330 9.515339 -8.525488 -10.207288 -34.287435 -10.122996 -19.694523 -19.835968 -0.194426 20.538002 -49.392834 -41.415454 12.436132 -10.648027 -55.012624 1.075708 40.956832 -6.147998 14.706268 35.638390 -14.137207 -24.566971 36.766782 -51.339790 -0.273319 11.747657 -32.905160 
0.008986 0.226866 0.909943 -163.427564 1.679601 100.280652 11.155367 6.402566 -48.483640 -13.531362 10.463818 48.755344 2.361076 4.685235 -22.050415 0.000000 -0.000000 0.000000 -11.875636 -18.038110 -44.536554 4.721193 -19.559794 56.798238 9.574880 4.356937 -10.926227 0.000000 -0.000000 0.000000 0.627811 3.940335 64.820994 -6.264413 -2.280513 -4.023725 2.287994 1.593128 0.969735 -14.227726 8.517347 -13.336375 1.801176 9.711024 -6.951188 -10.688555 -32.918078 -9.121679 -22.001086 -19.693093 0.959483 19.979869 -50.668475 -39.069460 11.013227 -12.741387 -57.836301 2.621643 39.419620 -5.144741 18.675602 35.599000 -11.202200 -25.984009 38.346396 -50.583366 -0.346867 12.103609 -34.846943 
0.007333 0.224728 0.927165 -164.666216 1.434011 99.656926 10.303585 6.054495 -44.993633 -13.247958 9.417121 44.394686 2.602618 5.388704 -20.612767 0.000000 -0.000000 0.000000 -11.399885 -17.119527 -42.117169 5.183411 -18.387014 52.207804 9.813483 4.057561 -9.186336 0.000000 -0.000000 0.000000 0.456880 3.983720 62.315802 -6.040792 -2.305789 -3.269108 2.257589 1.450245 0.911933 -14.032641 9.012940 -13.568341 1.619863 10.637932 -5.002831 -11.144037 -31.793484 -8.880476 -24.692469 -19.394427 2.113346 20.423158 -50.730894 -38.434624 12.158760 -11.143191 -55.440152 3.669342 38.022626 -4.755776 22.921562 34.977492 -8.109658 -27.692918 39.691653 -51.248612 0.348331 12.402491 -34.737689 
0.006313 0.223837 0.941855 -165.882629 1.511330 99.378617 9.936242 5.827911 -42.067845 -12.435146 8.904373 40.541437 2.331114 5.654979 -19.423712 0.000000 -0.000000 0.000000 -10.665100 -15.861820 -39.964990 5.265718 -17.547994 47.764525 9.960039 3.759057 -7.381078 0.000000 -0.000000 0.000000 0.204515 3.699619 59.440724 -5.903405 -2.325769 -3.566605 2.128058 1.727061 1.268024 -13.762953 10.038469 -12.533351 1.431791 11.131874 -4.211453 -12.199669 -30.309862 -7.444018 -26.793215 -19.242782 3.075769 19.980854 -51.444574 -36.663909 11.330848 -11.834945 -56.133283 6.124870 36.458669 -2.681777 25.722953 34.603116 -5.854141 -28.840146 41.327429 -50.075881 -0.034816 12.517832 -35.661917 
0.006235 0.223708 0.956228 -167.235045 1.475519 98.696590 9.378567 5.734614 -38.604534 -11.568775 8.291618 36.600683 2.084089 5.953024 -18.332023 0.000000 -0.000000 0.000000 -9.944791 -14.467551 -37.390430 5.274755 -16.284945 43.380285 10.263050 3.347123 -5.767896 0.000000 -0.000000 0.000000 -0.232947 3.839133 56.703340 -5.584595 -2.089080 -2.929330 2.187093 1.746908 1.188440 -13.286418 10.864519 -12.391723 1.017099 11.210241 -2.755772 -12.992922 -28.943657 -6.706920 -28.980233 -19.002600 4.269502 19.688019 -52.088404 -34.969835 10.626616 -12.279830 -54.460415 7.975687 34.994809 -1.627365 28.678639 33.996501 -3.200345 -30.154188 42.420487 -49.933230 0.791615 12.879758 -36.148599 
0.006054 0.224684 0.968647 -168.340070 1.116394 97.970598 8.638719 5.232140 -35.246093 -10.852901 7.778955 32.819204 2.096362 6.691576 -17.327900 0.000000 -0.000000 0.000000 -9.612485 -13.355446 -34.660116 5.097490 -15.129662 39.218460 10.782755 2.830964 -4.220699 0.000000 -0.000000 0.000000 -0.518979 3.888882 53.823768 -5.261265 -2.060699 -2.461106 2.167936 1.496041 1.309983 -12.862584 11.621730 -12.040982 0.647089 11.541558 -1.208299 -13.890845 -27.362094 -5.806341 -30.988726 -18.663546 5.473012 19.414918 -52.739386 -33.289151 10.209234 -12.714478 -53.857507 9.729022 33.318710 -0.752173 31.564218 33.471346 -0.517583 -30.875820 43.398290 -49.489516 1.229158 13.166514 -36.517931 
0.006710 0.226545 0.979388 -169.338747 0.897067 97.567359 7.978204 4.924448 -32.404306 -9.998852 7.367363 29.346008 2.331657 7.338275 -16.336045 0.000000 -0.000000 0.000000 -9.015555 -12.323690 -32.382938 5.123480 -13.681706 35.191777 10.292137 2.373779 -3.306564 0.000000 -0.000000 0.000000 -0.826570 3.845313 50.595815 -4.947420 -2.052831 -2.451783 2.220264 1.267253 1.612993 -12.426181 12.240530 -11.348559 0.595319 12.192827 0.194297 -14.746001 -25.571465 -4.845563 -32.928462 -18.138388 6.522650 18.754868 -53.646674 -32.063835 10.341680 -12.339174 -54.182973 11.436289 31.530055 -0.001037 34.427848 32.827614 2.211608 -31.080244 44.452627 -48.530637 1.514330 13.154129 -36.603144 
0.007675 0.229402 0.988598 -170.053071 0.674958 96.763613 7.293027 4.532632 -29.377578 -8.856698 7.079160 26.159555 1.950305 7.323207 -15.475849 0.000000 -0.000000 0.000000 -8.564531 -11.193428 -29.665788 4.478888 -12.785215 31.764028 10.545483 1.855789 -2.431304 0.000000 -0.000000 0.000000 -0.876567 3.668658 47.485204 -4.532872 -2.008047 -1.946577 2.208153 1.003279 1.783727 -11.807946 12.815751 -10.305285 0.270996 12.521833 1.688421 -15.245118 -23.883012 -4.089234 -35.079192 -17.790147 7.648701 17.624618 -54.242896 -30.079551 8.738740 -14.097318 -55.087645 12.359464 29.698141 0.420094 37.324509 31.966758 4.808013 -31.316007 45.521361 -47.615756 1.811705 13.523775 -37.018165 
0.008448 0.233401 0.996184 -170.987297 0.137096 95.734184 6.484680 4.080242 -26.008976 -8.150454 6.808477 23.012916 1.973852 8.067463 -14.793511 0.000000 -0.000000 0.000000 -8.449963 -10.556133 -26.886889 4.116631 -11.311098 28.757264 10.808650 1.391990 -1.632304 0.000000 -0.000000 0.000000 -1.275472 3.799694 44.429096 -4.168066 -2.011227 -1.624876 2.210578 0.931023 2.328644 -10.985892 13.295730 -9.141588 0.036853 12.664299 2.902682 -15.554704 -22.329488 -3.387987 -36.785723 -17.798888 8.587783 16.193406 -54.650978 -28.045421 9.122151 -14.050850 -54.820238 13.283854 27.783841 0.820326 39.628036 30.966319 7.117523 -31.361127 46.804001 -46.287793 1.894590 13.702541 -37.619903 
0.009174 0.237235 1.002100 -171.787257 -0.333103 95.290641 5.759678 3.436271 -23.651001 -7.533301 6.560212 20.412280 2.222809 9.088028 -14.277911 0.000000 -0.000000 0.000000 -8.428819 -9.671453 -24.921325 3.848650 -10.290746 26.149344 10.772124 0.580384 -1.127176 0.000000 -0.000000 0.000000 -1.571288 3.718846 40.505354 -3.736238 -2.030836 -1.158812 2.124557 0.817227 2.891342 -10.467820 13.533835 -7.950845 -0.104675 12.968408 3.805012 -16.110482 -20.746326 -2.711356 -38.181882 -17.421238 9.800424 15.221901 -55.656541 -26.546067 9.573070 -13.048626 -54.624716 14.289474 25.993330 1.209264 41.502979 29.771490 9.353010 -31.304899 48.097501 -45.303372 2.221507 13.546019 -37.778054 
